<svg width='24' height='24' viewBox='0 0 24 24' xmlns='http://www.w3.org/2000/svg' xmlns:xlink='http://www.w3.org/1999/xlink'><rect width='24' height='24' stroke='none' fill='#ffffff' opacity='0'/>


<g transform="matrix(0.53 0 0 0.53 12 12)" >
<path style="stroke: white; stroke-width: 1; stroke-dasharray: none; stroke-linecap: butt; stroke-dashoffset: 0; stroke-linejoin: miter; stroke-miterlimit: 4; fill: rgb(0,0,0); fill-rule: nonzero; opacity: 1;" transform=" translate(-24, -24)" d="M 24 5 C 20.307874 5 17.324754 7.5849974 16.416016 11 L 16 11 C 12.704135 11 10 13.704135 10 17 C 10 20.295865 12.704135 23 16 23 L 16.585938 23 L 14.234375 26.695312 C 13.932363488936097 27.147697815305296 13.898888852859464 27.728121756020535 14.146890287051761 28.212228322122566 C 14.39489172124406 28.696334888224598 14.885511322632805 29.008272236019014 15.429106317601379 29.027464946866 C 15.972701312569953 29.046657657712988 16.484098961315578 28.770098537318606 16.765625 28.304688 L 20.140625 23 L 23.585938 23 L 21.234375 26.695312 C 20.932363488936097 27.147697815305296 20.898888852859464 27.728121756020535 21.14689028705176 28.212228322122566 C 21.394891721244058 28.696334888224598 21.885511322632805 29.008272236019014 22.42910631760138 29.027464946866 C 22.972701312569953 29.046657657712988 23.484098961315578 28.770098537318606 23.765625 28.304688 L 27.140625 23 L 30.585938 23 L 28.234375 26.695312 C 27.932363488936097 27.147697815305296 27.898888852859464 27.728121756020535 28.14689028705176 28.212228322122566 C 28.394891721244058 28.696334888224598 28.885511322632805 29.008272236019014 29.42910631760138 29.027464946866 C 29.972701312569953 29.046657657712988 30.484098961315578 28.770098537318606 30.765625 28.304688 L 34.496094 22.443359 C 36.556029 21.489657 38 19.405711 38 17 C 38 13.704135 35.295865 11 32 11 L 31.583984 11 C 30.675246 7.5849974 27.692126 5 24 5 z M 24 8 C 26.647542 8 28.772249 10.025292 28.970703 12.615234 C 29.030997056727802 13.396817444880412 29.68289138483364 14.000202727592466 30.466797 14 L 32 14 C 33.674135 14 35 15.325865 35 17 C 35 18.26281 34.245458 19.326511 33.15625 19.773438 C 33.0817504208288 19.78997715186431 33.00862147310021 19.81217692742026 32.9375 19.839844 C 32.641666 19.935669 32.330501 20 32 20 L 26.554688 20 C 26.456490771065962 19.98497493632022 26.357043917798137 19.979740909041794 26.257812 19.984375 C 26.208104389121534 19.98711713085178 26.158564087850184 19.99233191697225 26.109375 20 L 19.554688 20 C 19.456490771065962 19.98497493632022 19.357043917798137 19.979740909041794 19.257812 19.984375 C 19.208104389121534 19.98711713085178 19.158564087850184 19.99233191697225 19.109375 20 L 16 20 C 14.325865 20 13 18.674135 13 17 C 13 15.325865 14.325865 14 16 14 L 17.533203 14 C 18.31710861516636 14.000202727592466 18.969002943272198 13.396817444880412 19.029297 12.615234000000001 C 19.227751 10.025292 21.352458 8 24 8 z M 10.484375 29.980469 C 10.008055961771086 29.98328255071786 9.561379510345285 30.21213660174168 9.280850788834382 30.597092935180182 C 9.000322067323479 30.982049268618688 8.919283269252183 31.47735396487698 9.0625 31.931641 L 9.6621094 33.927734 C 9.665855013354205 33.94015414880928 9.66976157531126 33.95252518947302 9.6738281 33.964844 L 11.208984 39.080078 C 11.904451 41.401045 14.054278 43 16.476562 43 L 31.523438 43 C 33.945723 43 36.094532 41.399863 36.791016 39.080078 L 38.298828 34.054688 C 38.34014280554945 33.95666712322683 38.3709148848576 33.854529980398176 38.390625 33.75 L 38.9375 31.931641 C 39.091852078231206 31.41802849614605 38.96042526994141 30.8610851866772 38.59274004120714 30.470662414877136 C 38.22505481247288 30.080239643077075 37.67698914614902 29.915670869318678 37.155049367619775 30.038964160937713 C 36.63310958909053 30.162257452556748 36.216616105369084 30.554675640102797 36.0625 31.068359 L 35.533203 32.830078 C 35.294551 33.150448 34.504872 34 32.699219 34 C 31.045174 34 30.215228 33.255554 29.904297 32.884766 C 29.580643174419645 32.12218869714318 28.700128249320503 31.76631023826325 27.9375 32.089844 C 27.63189950852085 32.211029038778264 27.37456842679014 32.429245846679244 27.205078 32.710938 C 26.98435 32.982615 26.03609 34 24 34 C 21.760797 34 20.837191 32.760277 20.761719 32.65625 C 20.491384659699367 32.24767775782786 20.03857930969335 31.996848462750815 19.548828 31.984375 C 19.50389942697853 31.98300665595314 19.458932054747564 31.983658313477793 19.414062 31.986328 C 19.409505023653466 31.98630723571964 19.404947976346534 31.98630723571964 19.400391 31.986328 C 19.37298061701942 31.98818069748458 19.345626299982563 31.99078601344675 19.318359 31.994141 C 19.313799027694355 31.99477102145911 19.30924197942197 31.99542202835516 19.304688 31.996094 C 19.304036666735733 31.99609357580726 19.303385333264266 31.99609357580726 19.302734 31.996094 C 18.83285101940161 32.054248978156856 18.417999402303288 32.33081697001431 18.183594 32.742188 C 18.117881 32.852055 17.407124 34 15.302734 34 C 13.469992 34 12.686994 33.128 12.462891 32.820312 L 11.9375 31.068359 C 11.752368609748352 30.42056707224516 11.15808474564412 29.975653198407496 10.484375 29.980469 z M 19.544922 35.496094 C 20.495588 36.229341 21.880053 37 24 37 C 26.004059 37 27.500203 36.2277 28.462891 35.523438 C 29.375342 36.23629 30.783449 37 32.699219 37 C 33.296688 37 33.842242 36.920914 34.34375 36.796875 L 33.917969 38.216797 C 33.598453 39.281012 32.633152 40 31.523438 40 L 16.476562 40 C 15.366848 40 14.400564 39.281784 14.082031 38.21875 L 13.654297 36.794922 C 14.156812 36.919567 14.703644 37 15.302734 37 C 17.315871 37 18.640962 36.237375 19.544922 35.496094 z" stroke-linecap="round" />
</g>
</svg>