<svg width='24' height='24' viewBox='0 0 24 24' xmlns='http://www.w3.org/2000/svg' xmlns:xlink='http://www.w3.org/1999/xlink'><rect width='24' height='24' stroke='none' fill='#000000' opacity='0'/>


<g transform="matrix(1.54 0 0 1.54 12 12)" >
<path style="stroke: none; stroke-width: 1; stroke-dasharray: none; stroke-linecap: butt; stroke-dashoffset: 0; stroke-linejoin: miter; stroke-miterlimit: 4; fill: rgb(0,0,0); fill-rule: nonzero; opacity: 1;" transform=" translate(-8.5, -7.5)" d="M 5 1 C 3.9022727 1 3 1.9022727 3 3 L 3 8.8476562 C 2.4134474 9.3925528 2 10.134176 2 11 C 2 12.651094 3.3489059 14 5 14 C 6.6510941 14 8 12.651094 8 11 C 8 10.134762 7.5863827 9.3930762 7 8.8476562 L 7 3 C 7 1.9022727 6.0977273 1 5 1 z M 5 2 C 5.5522727 2 6 2.4477273 6 3 L 5 3 L 5 4 L 6 4 L 6 5 L 5 5 L 5 6 L 6 6 L 6 7 L 5 7 L 5 8 L 6 8 L 6 9.0117188 C 6.0003137244066105 9.168408449026614 6.074055277568904 9.315891481320486 6.1992188 9.4101562 C 6.686405 9.7787724 7 10.346963 7 11 C 7 12.110906 6.1109059 13 5 13 C 3.8890941 13 3 12.110906 3 11 C 3 10.345765 3.3140584 9.7776161 3.8007812 9.4101562 C 3.9259447224310953 9.315891481320486 3.9996862755933895 9.168408449026614 4 9.0117188 L 4 3 C 4 2.4477273 4.4477273 2 5 2 z M 11 3 L 11 4.0546875 C 10.682812 4.1199766 10.390523 4.2481413 10.128906 4.421875 L 9.3535156 3.6464844 L 8.6464844 4.3535156 L 9.421875 5.1289062 C 9.2482545 5.3906981 9.1159137 5.6826804 9.0507812 6 L 8 6 L 8 7 L 9.0507812 7 C 9.1159137 7.3173196 9.2482545 7.6093019 9.421875 7.8710938 L 8.6464844 8.6464844 L 9.3535156 9.3535156 L 10.128906 8.578125 C 10.390523 8.7518587 10.682812 8.8800234 11 8.9453125 L 11 10 L 12 10 L 12 8.9492188 C 12 8.9492188 12.001953 8.9492188 12.001953 8.9492188 C 12.308693 8.8860101 12.592511 8.7626548 12.847656 8.5976562 L 13.628906 9.4609375 L 14.371094 8.7890625 L 13.566406 7.9023438 C 13.749443 7.6342709 13.881636 7.3279679 13.949219 7 L 15 7 L 15 6 L 13.949219 6 C 13.949219 6 13.949219 5.9980469 13.949219 5.9980469 C 13.884194 5.6824949 13.758334 5.3895065 13.585938 5.1289062 L 14.349609 4.3769531 L 13.650391 3.6640625 L 12.880859 4.4199219 C 12.617928 4.2442712 12.319381 4.1165948 12 4.0507812 L 12 3 L 11 3 z M 11.5 5 C 12.334349 5 13 5.6656506 13 6.5 C 13 7.3343494 12.334349 8 11.5 8 C 10.665651 8 10 7.3343494 10 6.5 C 10 5.6656506 10.665651 5 11.5 5 z" stroke-linecap="round" />
</g>
</svg>